<mxfile host="app.diagrams.net" modified="2023-09-22T21:39:42.824Z" agent="Mozilla/5.0 (Windows NT 10.0; Win64; x64) AppleWebKit/537.36 (KHTML, like Gecko) Chrome/116.0.0.0 Safari/537.36" etag="njPRK-WKu4zqIcc4u09q" version="21.8.1" type="github">
  <diagram name="Page-1" id="llzlS-0IsGT44wGsYPlk">
    <mxGraphModel dx="1231" dy="758" grid="1" gridSize="10" guides="1" tooltips="1" connect="1" arrows="1" fold="1" page="1" pageScale="1" pageWidth="850" pageHeight="1100" math="0" shadow="0">
      <root>
        <mxCell id="0" />
        <mxCell id="1" parent="0" />
        <mxCell id="t8sfxprEuuR3UFM-vzub-1" value="Amazon Route 53" style="sketch=0;outlineConnect=0;fontColor=#232F3E;gradientColor=none;strokeColor=#ffffff;fillColor=#232F3E;dashed=0;verticalLabelPosition=middle;verticalAlign=bottom;align=center;html=1;whiteSpace=wrap;fontSize=10;fontStyle=1;spacing=3;shape=mxgraph.aws4.productIcon;prIcon=mxgraph.aws4.route_53;" parent="1" vertex="1">
          <mxGeometry x="30" y="340" width="80" height="110" as="geometry" />
        </mxCell>
        <mxCell id="t8sfxprEuuR3UFM-vzub-2" value="" style="sketch=0;outlineConnect=0;fontColor=#232F3E;gradientColor=none;fillColor=#232F3D;strokeColor=none;dashed=0;verticalLabelPosition=bottom;verticalAlign=top;align=center;html=1;fontSize=12;fontStyle=0;aspect=fixed;pointerEvents=1;shape=mxgraph.aws4.users;" parent="1" vertex="1">
          <mxGeometry x="220" y="90" width="78" height="78" as="geometry" />
        </mxCell>
        <mxCell id="t8sfxprEuuR3UFM-vzub-3" value="" style="sketch=0;outlineConnect=0;fontColor=#232F3E;gradientColor=none;fillColor=#232F3D;strokeColor=none;dashed=0;verticalLabelPosition=bottom;verticalAlign=top;align=center;html=1;fontSize=12;fontStyle=0;aspect=fixed;pointerEvents=1;shape=mxgraph.aws4.users;" parent="1" vertex="1">
          <mxGeometry x="230" y="340" width="78" height="78" as="geometry" />
        </mxCell>
        <mxCell id="t8sfxprEuuR3UFM-vzub-4" value="" style="sketch=0;outlineConnect=0;fontColor=#232F3E;gradientColor=none;fillColor=#232F3D;strokeColor=none;dashed=0;verticalLabelPosition=bottom;verticalAlign=top;align=center;html=1;fontSize=12;fontStyle=0;aspect=fixed;pointerEvents=1;shape=mxgraph.aws4.users;" parent="1" vertex="1">
          <mxGeometry x="250" y="570" width="78" height="78" as="geometry" />
        </mxCell>
        <mxCell id="t8sfxprEuuR3UFM-vzub-6" value="" style="endArrow=classic;startArrow=classic;html=1;rounded=0;" parent="1" edge="1">
          <mxGeometry width="50" height="50" relative="1" as="geometry">
            <mxPoint x="120" y="390" as="sourcePoint" />
            <mxPoint x="220" y="390" as="targetPoint" />
          </mxGeometry>
        </mxCell>
        <mxCell id="t8sfxprEuuR3UFM-vzub-7" value="" style="endArrow=classic;startArrow=classic;html=1;rounded=0;" parent="1" source="t8sfxprEuuR3UFM-vzub-1" target="t8sfxprEuuR3UFM-vzub-2" edge="1">
          <mxGeometry width="50" height="50" relative="1" as="geometry">
            <mxPoint x="130" y="310" as="sourcePoint" />
            <mxPoint x="230" y="310" as="targetPoint" />
          </mxGeometry>
        </mxCell>
        <mxCell id="t8sfxprEuuR3UFM-vzub-8" value="" style="endArrow=classic;startArrow=classic;html=1;rounded=0;" parent="1" edge="1">
          <mxGeometry width="50" height="50" relative="1" as="geometry">
            <mxPoint x="120" y="430" as="sourcePoint" />
            <mxPoint x="240" y="620" as="targetPoint" />
          </mxGeometry>
        </mxCell>
        <mxCell id="t8sfxprEuuR3UFM-vzub-9" value="Availability Zone 1 to 3&amp;nbsp;" style="fillColor=none;strokeColor=#147EBA;dashed=1;verticalAlign=top;fontStyle=0;fontColor=#147EBA;whiteSpace=wrap;html=1;" parent="1" vertex="1">
          <mxGeometry x="390" y="120" width="130" height="510" as="geometry" />
        </mxCell>
        <mxCell id="t8sfxprEuuR3UFM-vzub-10" value="" style="sketch=0;points=[[0,0,0],[0.25,0,0],[0.5,0,0],[0.75,0,0],[1,0,0],[0,1,0],[0.25,1,0],[0.5,1,0],[0.75,1,0],[1,1,0],[0,0.25,0],[0,0.5,0],[0,0.75,0],[1,0.25,0],[1,0.5,0],[1,0.75,0]];outlineConnect=0;fontColor=#232F3E;fillColor=#ED7100;strokeColor=#ffffff;dashed=0;verticalLabelPosition=bottom;verticalAlign=top;align=center;html=1;fontSize=12;fontStyle=0;aspect=fixed;shape=mxgraph.aws4.resourceIcon;resIcon=mxgraph.aws4.elastic_load_balancing;" parent="1" vertex="1">
          <mxGeometry x="416" y="320" width="78" height="78" as="geometry" />
        </mxCell>
        <mxCell id="t8sfxprEuuR3UFM-vzub-11" value="Auto Scaling group" style="points=[[0,0],[0.25,0],[0.5,0],[0.75,0],[1,0],[1,0.25],[1,0.5],[1,0.75],[1,1],[0.75,1],[0.5,1],[0.25,1],[0,1],[0,0.75],[0,0.5],[0,0.25]];outlineConnect=0;gradientColor=none;html=1;whiteSpace=wrap;fontSize=12;fontStyle=0;container=1;pointerEvents=0;collapsible=0;recursiveResize=0;shape=mxgraph.aws4.groupCenter;grIcon=mxgraph.aws4.group_auto_scaling_group;grStroke=1;strokeColor=#D86613;fillColor=none;verticalAlign=top;align=center;fontColor=#D86613;dashed=1;spacingTop=25;" parent="1" vertex="1">
          <mxGeometry x="640" y="30" width="190" height="700" as="geometry" />
        </mxCell>
        <mxCell id="t8sfxprEuuR3UFM-vzub-12" value="Availability Zone" style="fillColor=none;strokeColor=#147EBA;dashed=1;verticalAlign=top;fontStyle=0;fontColor=#147EBA;whiteSpace=wrap;html=1;" parent="t8sfxprEuuR3UFM-vzub-11" vertex="1">
          <mxGeometry x="30" y="70" width="130" height="160" as="geometry" />
        </mxCell>
        <mxCell id="t8sfxprEuuR3UFM-vzub-13" value="Availability Zone" style="fillColor=none;strokeColor=#147EBA;dashed=1;verticalAlign=top;fontStyle=0;fontColor=#147EBA;whiteSpace=wrap;html=1;" parent="t8sfxprEuuR3UFM-vzub-11" vertex="1">
          <mxGeometry x="30" y="260" width="130" height="172" as="geometry" />
        </mxCell>
        <mxCell id="t8sfxprEuuR3UFM-vzub-14" value="Availability Zone" style="fillColor=none;strokeColor=#147EBA;dashed=1;verticalAlign=top;fontStyle=0;fontColor=#147EBA;whiteSpace=wrap;html=1;" parent="t8sfxprEuuR3UFM-vzub-11" vertex="1">
          <mxGeometry x="40" y="490" width="130" height="170" as="geometry" />
        </mxCell>
        <mxCell id="t8sfxprEuuR3UFM-vzub-15" value="" style="sketch=0;outlineConnect=0;fontColor=#232F3E;gradientColor=none;fillColor=#ED7100;strokeColor=none;dashed=0;verticalLabelPosition=bottom;verticalAlign=top;align=center;html=1;fontSize=12;fontStyle=0;aspect=fixed;pointerEvents=1;shape=mxgraph.aws4.m5_instance;" parent="t8sfxprEuuR3UFM-vzub-11" vertex="1">
          <mxGeometry x="71" y="100" width="48" height="48" as="geometry" />
        </mxCell>
        <mxCell id="t8sfxprEuuR3UFM-vzub-21" value="" style="sketch=0;outlineConnect=0;fontColor=#232F3E;gradientColor=none;fillColor=#ED7100;strokeColor=none;dashed=0;verticalLabelPosition=bottom;verticalAlign=top;align=center;html=1;fontSize=12;fontStyle=0;aspect=fixed;pointerEvents=1;shape=mxgraph.aws4.m5_instance;" parent="t8sfxprEuuR3UFM-vzub-11" vertex="1">
          <mxGeometry x="71" y="160" width="48" height="48" as="geometry" />
        </mxCell>
        <mxCell id="t8sfxprEuuR3UFM-vzub-22" value="" style="sketch=0;outlineConnect=0;fontColor=#232F3E;gradientColor=none;fillColor=#ED7100;strokeColor=none;dashed=0;verticalLabelPosition=bottom;verticalAlign=top;align=center;html=1;fontSize=12;fontStyle=0;aspect=fixed;pointerEvents=1;shape=mxgraph.aws4.m5_instance;" parent="t8sfxprEuuR3UFM-vzub-11" vertex="1">
          <mxGeometry x="71" y="290" width="48" height="48" as="geometry" />
        </mxCell>
        <mxCell id="t8sfxprEuuR3UFM-vzub-23" value="" style="sketch=0;outlineConnect=0;fontColor=#232F3E;gradientColor=none;fillColor=#ED7100;strokeColor=none;dashed=0;verticalLabelPosition=bottom;verticalAlign=top;align=center;html=1;fontSize=12;fontStyle=0;aspect=fixed;pointerEvents=1;shape=mxgraph.aws4.m5_instance;" parent="t8sfxprEuuR3UFM-vzub-11" vertex="1">
          <mxGeometry x="71" y="350" width="48" height="48" as="geometry" />
        </mxCell>
        <mxCell id="t8sfxprEuuR3UFM-vzub-24" value="" style="sketch=0;outlineConnect=0;fontColor=#232F3E;gradientColor=none;fillColor=#ED7100;strokeColor=none;dashed=0;verticalLabelPosition=bottom;verticalAlign=top;align=center;html=1;fontSize=12;fontStyle=0;aspect=fixed;pointerEvents=1;shape=mxgraph.aws4.m5_instance;" parent="t8sfxprEuuR3UFM-vzub-11" vertex="1">
          <mxGeometry x="81" y="530" width="48" height="48" as="geometry" />
        </mxCell>
        <mxCell id="t8sfxprEuuR3UFM-vzub-25" value="" style="endArrow=classic;startArrow=classic;html=1;rounded=0;" parent="1" target="t8sfxprEuuR3UFM-vzub-15" edge="1">
          <mxGeometry width="50" height="50" relative="1" as="geometry">
            <mxPoint x="500" y="332" as="sourcePoint" />
            <mxPoint x="622" y="160" as="targetPoint" />
          </mxGeometry>
        </mxCell>
      </root>
    </mxGraphModel>
  </diagram>
</mxfile>
